<?xml version="1.0" standalone="no"?>
<!DOCTYPE svg PUBLIC "-//W3C//DTD SVG 20010904//EN"
 "http://www.w3.org/TR/2001/REC-SVG-20010904/DTD/svg10.dtd">
<svg version="1.0" xmlns="http://www.w3.org/2000/svg"
 width="700.000000pt" height="700.000000pt" viewBox="0 0 700.000000 700.000000"
 preserveAspectRatio="xMidYMid meet">
<metadata>
Created by potrace 1.14, written by Peter Selinger 2001-2017
</metadata>
<g transform="translate(0.000000,700.000000) scale(0.100000,-0.100000)"
fill="#000000" stroke="none">
<path d="M3427 6754 c-1 -1 -40 -4 -87 -8 -200 -13 -437 -80 -624 -175 -282
-143 -493 -353 -618 -616 -18 -38 -34 -71 -34 -73 -1 -2 -28 1 -60 7 -270 48
-571 26 -829 -61 -320 -107 -625 -326 -816 -583 -24 -33 -47 -62 -50 -65 -19
-16 -133 -225 -167 -309 -97 -233 -131 -415 -127 -681 4 -209 5 -221 44 -382
80 -338 264 -631 561 -898 119 -106 379 -251 555 -308 94 -31 276 -72 319 -72
61 0 56 72 57 -894 0 -648 4 -889 12 -913 32 -86 111 -161 235 -223 63 -31
271 -104 327 -113 17 -3 71 -15 120 -26 50 -11 113 -23 140 -27 28 -3 53 -8
56 -10 3 -1 28 -6 55 -9 27 -3 60 -8 74 -10 87 -15 371 -41 560 -51 145 -8
640 -8 740 0 41 3 113 8 160 11 47 3 105 7 130 10 25 2 74 7 110 10 82 8 319
42 385 55 28 6 59 12 70 14 203 41 403 103 495 154 105 57 180 130 216 207 5
11 11 404 14 914 l5 894 40 4 c152 15 365 78 525 154 105 50 295 171 360 229
206 185 332 345 438 560 64 130 131 330 147 440 2 19 9 62 14 95 13 89 11 347
-4 445 -67 433 -278 809 -606 1077 -223 182 -498 311 -766 359 -13 2 -35 6
-50 9 -59 10 -172 19 -253 19 -90 0 -248 -11 -271 -18 -8 -3 -32 -7 -55 -10
l-41 -5 -22 54 c-52 126 -153 267 -276 390 -236 234 -587 387 -965 421 -68 6
-239 12 -243 8z m198 -328 c109 -7 137 -12 239 -37 277 -70 496 -208 653 -412
49 -63 133 -220 133 -248 0 -10 4 -20 9 -23 4 -3 11 -22 14 -42 7 -43 47 -99
87 -119 41 -21 80 -19 195 10 199 51 438 54 635 9 206 -47 428 -154 578 -277
78 -65 210 -211 267 -296 163 -245 238 -493 237 -784 -3 -645 -450 -1199
-1082 -1341 -162 -37 -402 -41 -559 -11 -139 27 -373 116 -450 171 -1 2 34 47
79 100 139 165 244 335 327 524 51 116 94 235 98 268 9 85 -70 172 -157 172
-44 0 -110 -34 -130 -67 -9 -16 -34 -76 -56 -134 -205 -546 -597 -917 -1062
-1004 -75 -14 -276 -14 -357 1 -157 28 -302 86 -442 178 -94 62 -123 87 -238
202 -162 164 -290 372 -388 631 -25 64 -55 127 -67 141 -90 97 -247 47 -272
-87 -4 -24 3 -60 28 -130 87 -252 221 -487 393 -692 47 -55 83 -102 81 -104
-17 -17 -203 -99 -278 -123 -163 -52 -215 -61 -390 -66 -913 -28 -1599 818
-1384 1705 135 560 605 976 1179 1046 76 9 262 9 340 0 86 -10 112 -16 190
-39 83 -24 141 -20 190 13 30 21 40 39 71 132 96 279 287 485 569 614 146 66
309 108 464 120 47 3 87 7 89 8 1 1 19 1 40 -1 20 -1 78 -5 127 -8z m-892
-3645 c42 -29 219 -121 232 -121 4 0 21 -6 38 -14 57 -26 179 -60 257 -72 14
-2 52 -8 85 -13 162 -25 429 6 615 71 77 27 278 122 290 137 3 3 21 14 40 24
l35 18 85 -51 c191 -116 413 -196 623 -226 15 -2 41 -6 58 -8 17 -3 33 -6 35
-8 3 -3 7 -1246 5 -1350 l-1 -26 -87 30 c-144 48 -454 115 -630 133 -30 4 -63
8 -73 10 -10 2 -54 7 -97 10 -43 4 -89 8 -103 10 -25 4 -182 14 -310 21 -91 4
-559 4 -654 0 -118 -6 -288 -17 -316 -21 -14 -2 -56 -6 -95 -10 -38 -3 -83 -8
-100 -10 -16 -2 -52 -7 -80 -10 -227 -29 -503 -89 -663 -145 -31 -11 -56 -20
-57 -20 0 0 3 1366 4 1372 1 7 24 12 101 22 201 28 469 127 635 235 33 22 66
40 73 40 7 1 32 -12 55 -28z m1117 -1745 c69 -3 154 -9 190 -12 36 -3 83 -7
105 -9 174 -13 474 -59 625 -96 100 -25 217 -63 273 -89 l58 -27 -62 -28 c-55
-24 -223 -77 -283 -89 -12 -3 -43 -9 -71 -15 -112 -24 -264 -49 -345 -56 -36
-4 -70 -8 -77 -10 -6 -2 -49 -6 -95 -10 -46 -3 -92 -8 -103 -10 -120 -24 -936
-24 -1130 0 -16 2 -59 6 -95 9 -36 3 -83 8 -105 11 -22 2 -62 7 -90 11 -236
28 -492 85 -643 144 -105 41 -108 44 -75 59 106 50 401 130 536 146 31 4 94
14 129 20 9 2 48 7 85 10 37 4 76 9 85 10 9 2 48 6 85 10 37 3 86 8 108 10 22
2 110 7 195 11 85 3 156 7 157 8 5 4 434 -2 543 -8z"/>
</g>
</svg>
